<?xml version="1.0" encoding="utf-8"?>
<svg version="1.1" xmlns:xlink="http://www.w3.org/1999/xlink" width="12px" height="12px" viewBox="313 191  12 12" xmlns="http://www.w3.org/2000/svg">
  <path d="M 319 191  C 322.36 191  325 193.64  325 197  C 325 200.36  322.36 203  319 203  C 315.64 203  313 200.36  313 197  C 313 193.64  315.64 191  319 191  Z " fill-rule="nonzero" fill="#ffffff" stroke="none" />
  <path d="M 319 191.5  C 322.08 191.5  324.5 193.92  324.5 197  C 324.5 200.08  322.08 202.5  319 202.5  C 315.92 202.5  313.5 200.08  313.5 197  C 313.5 193.92  315.92 191.5  319 191.5  Z " stroke-width="1" stroke="#797979" fill="none" />
  <path d="M 319 200  C 317.32 200  316 198.68  316 197  C 316 195.32  317.32 194  319 194  C 320.68 194  322 195.32  322 197  C 322 198.68  320.68 200  319 200  " fill-rule="nonzero" fill="#797979" stroke="none" />
</svg>