<?xml version="1.0" encoding="utf-8"?>
<svg version="1.1" xmlns:xlink="http://www.w3.org/1999/xlink" width="12px" height="12px" viewBox="313 224  12 12" xmlns="http://www.w3.org/2000/svg">
  <path d="M 319 224  C 322.36 224  325 226.64  325 230  C 325 233.36  322.36 236  319 236  C 315.64 236  313 233.36  313 230  C 313 226.64  315.64 224  319 224  Z " fill-rule="nonzero" fill="#ffffff" stroke="none" />
  <path d="M 319 224.5  C 322.08 224.5  324.5 226.92  324.5 230  C 324.5 233.08  322.08 235.5  319 235.5  C 315.92 235.5  313.5 233.08  313.5 230  C 313.5 226.92  315.92 224.5  319 224.5  Z " stroke-width="1" stroke="#797979" fill="none" />
  <path d="M 319 233  C 317.32 233  316 231.68  316 230  C 316 228.32  317.32 227  319 227  C 320.68 227  322 228.32  322 230  C 322 231.68  320.68 233  319 233  " fill-rule="nonzero" fill="#797979" stroke="none" />
</svg>