<?xml version="1.0" encoding="utf-8"?>
<svg version="1.1" xmlns:xlink="http://www.w3.org/1999/xlink" width="108px" height="89px" xmlns="http://www.w3.org/2000/svg">
  <g transform="matrix(1 0 0 1 -66 -112 )">
    <path d="M 66 112  L 174 112  L 174 201  L 66 201  L 66 112  " fill-rule="nonzero" fill="#cccccc" stroke="none" />
    <path d="M 72 118  L 168 118  L 168 195  L 72 195  L 72 118  " fill-rule="nonzero" fill="#ffffff" stroke="none" />
    <path d="M 128.835 138.7  C 125.097 138.7  122.16 135.763  122.16 132.025  C 122.16 128.287  125.097 125.35  128.835 125.35  C 132.573 125.35  135.51 128.287  135.51 132.025  C 135.51 135.763  132.573 138.7  128.835 138.7  " fill-rule="nonzero" fill="#cccccc" stroke="none" />
    <path d="M 74 193  L 74 152.85  L 97 134.6  L 129.2 156.905555555556  L 147.6 145.55  L 166 156.905555555556  L 166 193  L 74 193  " fill-rule="nonzero" fill="#169bd5" stroke="none" />
  </g>
</svg>