<?xml version="1.0" encoding="utf-8"?>
<svg version="1.1" xmlns:xlink="http://www.w3.org/1999/xlink" width="24px" height="22px" xmlns="http://www.w3.org/2000/svg">
  <g transform="matrix(1 0 0 1 -1027 -137 )">
    <path d="M 23.4343434343434 16.4444444444445  C 23.8114478114478 16.7901234567901  24 17.2098765432099  24 17.7037037037037  C 24 18.1975308641975  23.8114478114478 18.6172839506173  23.4343434343434 18.962962962963  L 20.6868686868686 21.4814814814815  C 20.3097643097642 21.8271604938271  19.851851851852 22  19.3131313131314 22  C 18.7744107744109 22  18.3164983164984 21.8271604938271  17.939393939394 21.4814814814815  L 12 16.037037037037  L 6.06060606060601 21.4814814814815  C 5.68350168350162 21.8271604938271  5.22558922558915 22  4.68686868686859 22  C 4.14814814814804 22  3.6902356902358 21.8271604938271  3.31313131313141 21.4814814814815  L 0.565656565656582 18.962962962963  C 0.188552188552194 18.6172839506173  0 18.1975308641975  0 17.7037037037037  C 0 17.2098765432099  0.188552188552194 16.7901234567901  0.565656565656582 16.4444444444445  L 6.50505050505058 11  L 0.565656565656582 5.55555555555554  C 0.188552188552194 5.20987654320987  0 4.79012345679013  0 4.2962962962963  C 0 3.80246913580248  0.188552188552194 3.38271604938271  0.565656565656582 3.03703703703701  L 3.31313131313141 0.518518518518533  C 3.6902356902358 0.172839506172863  4.14814814814804 0  4.68686868686859 0  C 5.22558922558915 0  5.68350168350162 0.172839506172863  6.06060606060601 0.518518518518533  L 12 5.96296296296299  L 17.939393939394 0.518518518518533  C 18.3164983164984 0.172839506172863  18.7744107744109 0  19.3131313131314 0  C 19.851851851852 0  20.3097643097642 0.172839506172863  20.6868686868686 0.518518518518533  L 23.4343434343434 3.03703703703701  C 23.8114478114478 3.38271604938271  24 3.80246913580248  24 4.2962962962963  C 24 4.79012345679013  23.8114478114478 5.20987654320987  23.4343434343434 5.55555555555554  L 17.4949494949494 11  L 23.4343434343434 16.4444444444445  Z " fill-rule="nonzero" fill="#333333" stroke="none" transform="matrix(1 0 0 1 1027 137 )" />
  </g>
</svg>