<?xml version="1.0" encoding="utf-8"?>
<svg version="1.1" xmlns:xlink="http://www.w3.org/1999/xlink" width="24px" height="21px" xmlns="http://www.w3.org/2000/svg">
  <g transform="matrix(1 0 0 1 -1027 -167 )">
    <path d="M 23.4343434343434 15.6969696969697  C 23.8114478114478 16.026936026936  24 16.4276094276094  24 16.8989898989899  C 24 17.3703703703704  23.8114478114478 17.7710437710438  23.4343434343434 18.1010101010101  L 20.6868686868686 20.5050505050505  C 20.3097643097642 20.8350168350168  19.851851851852 21  19.3131313131314 21  C 18.7744107744109 21  18.3164983164984 20.8350168350168  17.939393939394 20.5050505050505  L 12 15.3080808080808  L 6.06060606060601 20.5050505050505  C 5.68350168350162 20.8350168350168  5.22558922558915 21  4.68686868686859 21  C 4.14814814814804 21  3.6902356902358 20.8350168350168  3.31313131313141 20.5050505050505  L 0.565656565656582 18.1010101010101  C 0.188552188552194 17.7710437710438  0 17.3703703703704  0 16.8989898989899  C 0 16.4276094276094  0.188552188552194 16.026936026936  0.565656565656582 15.6969696969697  L 6.50505050505058 10.5  L 0.565656565656582 5.30303030303031  C 0.188552188552194 4.97306397306397  0 4.57239057239056  0 4.1010101010101  C 0 3.62962962962962  0.188552188552194 3.22895622895624  0.565656565656582 2.8989898989899  L 3.31313131313141 0.494949494949509  C 3.6902356902358 0.16498316498317  4.14814814814804 0  4.68686868686859 0  C 5.22558922558915 0  5.68350168350162 0.16498316498317  6.06060606060601 0.494949494949509  L 12 5.6919191919192  L 17.939393939394 0.494949494949509  C 18.3164983164984 0.16498316498317  18.7744107744109 0  19.3131313131314 0  C 19.851851851852 0  20.3097643097642 0.16498316498317  20.6868686868686 0.494949494949509  L 23.4343434343434 2.8989898989899  C 23.8114478114478 3.22895622895624  24 3.62962962962962  24 4.1010101010101  C 24 4.57239057239056  23.8114478114478 4.97306397306397  23.4343434343434 5.30303030303031  L 17.4949494949494 10.5  L 23.4343434343434 15.6969696969697  Z " fill-rule="nonzero" fill="#333333" stroke="none" transform="matrix(1 0 0 1 1027 167 )" />
  </g>
</svg>