<?xml version="1.0" encoding="utf-8"?>
<svg version="1.1" xmlns:xlink="http://www.w3.org/1999/xlink" width="22px" height="22px" xmlns="http://www.w3.org/2000/svg">
  <g transform="matrix(1 0 0 1 -1028 -195 )">
    <path d="M 21.4814814814815 16.4444444444445  C 21.8271604938273 16.7901234567901  22 17.2098765432099  22 17.7037037037037  C 22 18.1975308641975  21.8271604938273 18.6172839506173  21.4814814814815 18.962962962963  L 18.9629629629628 21.4814814814815  C 18.6172839506171 21.8271604938272  18.1975308641977 22  17.7037037037037 22  C 17.2098765432099 22  16.7901234567903 21.8271604938272  16.4444444444446 21.4814814814815  L 11 16.037037037037  L 5.55555555555543 21.4814814814815  C 5.2098765432097 21.8271604938272  4.79012345679007 22  4.2962962962963 22  C 3.80246913580231 22  3.38271604938291 21.8271604938272  3.03703703703718 21.4814814814815  L 0.518518518518476 18.962962962963  C 0.17283950617275 18.6172839506173  0 18.1975308641975  0 17.7037037037037  C 0 17.2098765432099  0.17283950617275 16.7901234567901  0.518518518518476 16.4444444444445  L 5.96296296296305 11  L 0.518518518518476 5.55555555555554  C 0.17283950617275 5.20987654320987  0 4.7901234567901  0 4.2962962962963  C 0 3.80246913580248  0.17283950617275 3.38271604938271  0.518518518518476 3.03703703703701  L 3.03703703703718 0.518518518518533  C 3.38271604938291 0.172839506172835  3.80246913580231 0  4.2962962962963 0  C 4.79012345679007 0  5.2098765432097 0.172839506172835  5.55555555555543 0.518518518518533  L 11 5.96296296296299  L 16.4444444444446 0.518518518518533  C 16.7901234567903 0.172839506172835  17.2098765432099 0  17.7037037037037 0  C 18.1975308641977 0  18.6172839506171 0.172839506172835  18.9629629629628 0.518518518518533  L 21.4814814814815 3.03703703703701  C 21.8271604938273 3.38271604938271  22 3.80246913580248  22 4.2962962962963  C 22 4.7901234567901  21.8271604938273 5.20987654320987  21.4814814814815 5.55555555555554  L 16.037037037037 11  L 21.4814814814815 16.4444444444445  Z " fill-rule="nonzero" fill="#333333" stroke="none" transform="matrix(1 0 0 1 1028 195 )" />
  </g>
</svg>