<?xml version="1.0" encoding="utf-8"?>
<svg version="1.1" xmlns:xlink="http://www.w3.org/1999/xlink" width="28px" height="23px" xmlns="http://www.w3.org/2000/svg">
  <g transform="matrix(1 0 0 1 -1017 -518 )">
    <path d="M 13.0582959641256 17.25  L 13.9372197309417 17.25  L 15.7578475336322 15.3551136363636  L 13.3721973094171 12.8721590909091  L 11.5515695067265 14.7670454545454  L 11.5515695067265 15.6818181818182  L 13.0582959641256 15.6818181818182  L 13.0582959641256 17.25  Z M 20.8273542600898 6.0276988636364  C 21.0052316890881 5.84256628787875  21.0104633781764 5.66287878787875  20.8430493273543 5.4886363636364  C 20.6756352765321 5.31439393939394  20.5029895366217 5.31983901515153  20.3251121076235 5.50497159090909  L 14.8318385650223 11.2223011363636  C 14.653961136024 11.4074337121212  14.6487294469357 11.5871212121212  14.8161434977578 11.7613636363636  C 14.9835575485799 11.9356060606061  15.1562032884904 11.9301609848485  15.3340807174889 11.7450284090909  L 20.8273542600898 6.0276988636364  Z M 21.7847533632287 14.7180397727273  C 21.9940209267563 14.8051609848485  22.0986547085201 14.9630681818182  22.0986547085201 15.1917613636364  L 22.0986547085201 18.2954545454546  C 22.0986547085201 19.5913825757575  21.6565769805679 20.6994554924242  20.7724215246637 21.6196732954546  C 19.8882660687593 22.5398910984848  18.8236173393123 23  17.5784753363228 23  L 4.52017937219739 23  C 3.27503736920789 23  2.21038863976082 22.5398910984848  1.3262331838564 21.6196732954546  C 0.44207772795221 20.6994554924242  0 19.5913825757575  0 18.2954545454546  L 0 4.70454545454544  C 0 3.40861742424241  0.44207772795221 2.30054450757578  1.3262331838564 1.38032670454544  C 2.21038863976082 0.460108901515156  3.27503736920789 0  4.52017937219739 0  L 17.5784753363228 0  C 18.2376681614348 0  18.8497757847533 0.136126893939377  19.414798206278 0.408380681818159  C 19.5717488789237 0.484611742424221  19.6659192825111 0.60984848484847  19.6973094170403 0.784090909090907  C 19.7286995515697 0.96922348484847  19.6816143497758 1.12713068181816  19.556053811659 1.2578125  L 18.786995515695 2.0582386363636  C 18.6405082212257 2.21070075757578  18.4730941704036 2.2542613636364  18.2847533632287 2.18892045454544  C 18.0440956651719 2.12357954545456  17.8086696562034 2.09090909090909  17.5784753363228 2  L 4.52017937219739 2  C 3.82959641255593 2.09090909090909  3.23841554559044 2.34682765151516  2.74663677130047 2.85866477272731  C 2.2548579970105 3.37050189393938  2.00896860986541 3.98579545454544  2 4.70454545454544  L 2 18.2954545454546  C 2.00896860986541 19.0142045454546  2.2548579970105 19.6294981060606  2.74663677130047 20.1413352272727  C 3.23841554559044 20.6531723484848  3.82959641255593 20.9090909090909  4.52017937219739 21  L 17.5784753363228 21  C 18.2690582959642 20.9090909090909  18.8602391629297 20.6531723484848  19.3520179372197 20.1413352272727  C 19.8437967115096 19.6294981060606  20.0896860986547 19.0142045454546  20.0896860986547 18.2954545454546  L 20.0896860986547 16.2372159090909  C 20.0896860986547 16.0956439393939  20.1367713004483 15.9758522727273  20.2309417040358 15.8778409090909  L 21.2354260089685 14.8323863636364  C 21.3923766816142 14.6690340909091  21.575485799701 14.6309185606061  21.7847533632287 14.7180397727273  Z M 10.0448430493273 14.1136363636364  L 20.5919282511211 3.1363636363636  L 25.1121076233185 7.84090909090909  L 14.5650224215246 18.8181818181818  L 10.0448430493273 18.8181818181818  L 10.0448430493273 14.1136363636364  Z M 28 4.18181818181816  C 28 4.61742424242422  27.8535127055306 4.98768939393938  27.5605381165919 5.2926136363636  L 26.116591928251 6.79545454545456  L 21.5964125560538 2.09090909090909  L 23.0403587443946 0.588068181818159  C 23.3333333333333 0.283143939393938  23.6890881913305 0.130681818181841  24.1076233183858 0.130681818181841  C 24.5261584454408 0.130681818181841  24.8819133034378 0.283143939393938  25.1748878923765 0.588068181818159  L 27.5605381165919 3.07102272727269  C 27.8535127055306 3.37594696969697  28 3.74621212121213  28 4.18181818181816  Z " fill-rule="nonzero" fill="#333333" stroke="none" transform="matrix(1 0 0 1 1017 518 )" />
  </g>
</svg>