<?xml version="1.0" encoding="utf-8"?>
<svg version="1.1" xmlns:xlink="http://www.w3.org/1999/xlink" width="108px" height="104px" xmlns="http://www.w3.org/2000/svg">
  <g transform="matrix(1 0 0 1 -1144 -109 )">
    <path d="M 1144 109  L 1252 109  L 1252 213  L 1144 213  L 1144 109  " fill-rule="nonzero" fill="#cccccc" stroke="none" />
    <path d="M 1151 116  L 1245 116  L 1245 206  L 1151 206  L 1151 116  " fill-rule="nonzero" fill="#ffffff" stroke="none" />
    <path d="M 1207.96 140.2  C 1203.592 140.2  1200.16 136.768  1200.16 132.4  C 1200.16 128.032  1203.592 124.6  1207.96 124.6  C 1212.328 124.6  1215.76 128.032  1215.76 132.4  C 1215.76 136.768  1212.328 140.2  1207.96 140.2  " fill-rule="nonzero" fill="#cccccc" stroke="none" />
    <path d="M 1154 204  L 1154 157.25  L 1176.25 136  L 1207.4 154.888888888889  L 1225.2 148.75  L 1243 154.888888888889  L 1243 204  L 1154 204  " fill-rule="nonzero" fill="#169bd5" stroke="none" />
  </g>
</svg>